# xmcd
#
# Track frame offsets:
#	182
#	17955
#	31872
#	51442
#	70660
#	89460
#	101925
#	116432
#	136437
#	155132
#	177705
#	196645
#
# Disc length: 2888 seconds
#
# Revision: 1
# Processed by: cddbd v1.4PL0 Copyright (c) Steve Scherf et al.
# Submitted via: audiograbber 1.82.02
#
DISCID=aa0b460c
DTITLE=Tunari - Ama Sua Ama Llulla Ama Khella
DYEAR=1900
DGENRE=
TTITLE0=Rosita
TTITLE1=En el vaiven
TTITLE2=Mi morena
TTITLE3=Tesorito
TTITLE4=Destino sin final
TTITLE5=Amazonas
TTITLE6=Desgarrado
TTITLE7=Morenadas y Diablada
TTITLE8=Elay Pue
TTITLE9=Malacunwawapa
TTITLE10=Ama Sua Ama Llulla Ama Khella
TTITLE11=Wisthu Vida
EXTD=
EXTT0=
EXTT1=
EXTT2=
EXTT3=
EXTT4=
EXTT5=
EXTT6=
EXTT7=
EXTT8=
EXTT9=
EXTT10=
EXTT11=
PLAYORDER=
